PathFileType	4	(X/Y/Z)	G:\GRF\jawan data\CompiledGRF\03. Mohit Kumar\0231~ac~Walking 03_markers.trc
DataRate	CameraRate	NumFrames	NumMarkers	Units	OrigDataRate	OrigDataStartFrame	OrigNumFrames
100.000000	100.000000	9	18	mm	100.000000	757	1010
Frame#	Time	c7			r should			l should			sacrum			r asis			r bar 1			r knee 1			r bar 2			r mall			r heel			r met			l asis			l bar 1			l knee 1			l bar 2			l mall			l heel			l met			
		X1	Y1	Z1	X2	Y2	Z2	X3	Y3	Z3	X4	Y4	Z4	X5	Y5	Z5	X6	Y6	Z6	X7	Y7	Z7	X8	Y8	Z8	X9	Y9	Z9	X10	Y10	Z10	X11	Y11	Z11	X12	Y12	Z12	X13	Y13	Z13	X14	Y14	Z14	X15	Y15	Z15	X16	Y16	Z16	X17	Y17	Z17	X18	Y18	Z18	

758	7.57	2121.508056640625	1500.648559570313	268.9779663085938	2218.525634765625	1440.636108398438	428.2451171875	2185.472412109375	1460.278564453125	91.91834259033203	2088.678955078125	1032.768920898438	231.5624694824219	2256.390869140625	1003.405822753906	371.5578308105469	2124.68798828125	597.9718627929688	411.9984436035156	2127.2705078125	509.78662109375	357.0332336425781	2020.171630859375	198.8380126953125	355.6103515625	2018.21142578125	71.38274383544922	288.8634948730469	1961.152709960938	42.16299438476563	234.33203125	2162.67138671875	28.82917213439941	295.9917602539063	2272.07373046875	1017.803405761719	123.398796081543	2352.99169921875	608.2278442382813	46.27321243286133	2401.523193359375	532.9457397460938	103.0410614013672	2388.23974609375	253.3632507324219	54.81024169921875	2405.013671875	78.90817260742188	123.9613265991211	nan	nan	nan	2544.703125	63.9588623046875	149.8240509033203	
759	7.58	2130.83544921875	1499.46923828125	268.8685913085938	2227.584228515625	1439.511962890625	428.0012512207031	2194.56201171875	1459.018920898438	91.80122375488281	2097.943115234375	1031.499389648438	231.5889892578125	2264.756591796875	1001.981506347656	371.8805847167969	2129.791015625	597.47705078125	412.37890625	2131.73291015625	509.4408264160156	357.3541564941406	2021.640258789063	199.5086364746094	355.6540222167969	2018.355102539063	71.75153350830078	288.7074279785156	1961.373413085938	43.00570678710938	234.10400390625	2162.62841796875	28.72984504699707	295.9286804199219	2281.06640625	1016.244750976563	123.6594161987305	2360.8876953125	605.640625	47.74537658691406	2408.921630859375	531.1752319335938	105.5679931640625	2406.08154296875	251.4561767578125	57.85584259033203	2429.4775390625	78.16355133056641	127.8498611450195	nan	nan	nan	2570.0234375	67.90219879150391	153.8921356201172	
760	7.59	2140.701171875	1498.157470703125	268.6575317382813	2236.68017578125	1438.33203125	427.6568298339844	2203.603515625	1457.807250976563	91.42189025878906	2107.301025390625	1030.10205078125	231.5618286132813	2273.279052734375	1000.606079101563	372.1670532226563	2135.776611328125	597.3355102539063	412.9443054199219	2136.56494140625	508.9913024902344	357.6284484863281	2023.185302734375	200.1552429199219	355.7881469726563	2018.504150390625	72.18083953857422	288.5964660644531	1961.4501953125	43.97806930541992	234.0769958496094	2162.851806640625	28.81731796264648	296.0543518066406	2290.1904296875	1014.702819824219	123.9266052246094	2368.44384765625	602.9002685546875	49.19428253173828	2416.188232421875	529.4872436523438	107.9486465454102	2422.310791015625	250.0905456542969	61.03841400146484	2452.122802734375	78.14448547363281	131.5711975097656	nan	nan	nan	2593.704833984375	71.98072814941406	157.9380340576172	
761	7.600000000000001	2149.76904296875	1496.923217773438	268.3053894042969	2246.06640625	1437.356201171875	427.236572265625	2212.421142578125	1456.5322265625	91.03675079345703	2115.30908203125	1029.019409179688	231.5531921386719	2281.846435546875	999.24853515625	372.4224853515625	2142.080322265625	597.1764526367188	413.3510131835938	2142.02685546875	508.5570068359375	357.8870849609375	2025.054443359375	200.9885864257813	356.0104675292969	2019.082275390625	72.86708068847656	288.7218627929688	1961.74072265625	45.10154342651367	234.0944366455078	2163.10205078125	28.92687225341797	296.1558837890625	2299.461669921875	1013.191223144531	124.2101058959961	2375.781005859375	600.3544311523438	50.66792678833008	2423.13818359375	527.862060546875	110.1067810058594	2436.9541015625	249.1141357421875	64.10919189453125	2473.416259765625	78.46322631835938	135.1056976318359	nan	nan	nan	2615.632080078125	76.01356506347656	161.9920959472656	
762	7.61	2157.593017578125	1496.015747070313	267.7362365722656	2255.395263671875	1436.341064453125	426.8370361328125	2221.7080078125	1455.10107421875	90.78804779052734	2123.736328125	1027.992919921875	231.4004211425781	2290.4091796875	997.9146118164063	372.7022399902344	2148.039794921875	596.2919921875	413.1653442382813	2148.088623046875	508.1539306640625	358.1053771972656	2027.424560546875	202.0955352783203	356.3808898925781	2019.81689453125	73.71465301513672	289.0690612792969	1962.12841796875	46.28245544433594	234.2172698974609	2163.328369140625	29.04366302490234	296.2160949707031	2308.914306640625	1011.778259277344	124.4248123168945	2383.36181640625	598.3109741210938	52.22857284545898	2429.982421875	526.3038330078125	112.081413269043	2450.200439453125	248.2596893310547	67.19593811035156	2492.968017578125	79.09211730957031	138.5450134277344	nan	nan	nan	2635.43994140625	79.74787139892578	165.9950866699219	
763	7.62	2167.0126953125	1495.035034179688	267.1905822753906	2264.48828125	1435.391967773438	426.1596069335938	2230.995849609375	1453.736938476563	90.27480316162109	2133.4423828125	1026.65966796875	230.9816131591797	2299.05615234375	996.6734008789063	373.01611328125	2154.736572265625	595.5780029296875	413.5255126953125	2154.34521484375	507.583251953125	358.2305908203125	2029.685546875	203.1051177978516	356.6920166015625	2020.232666015625	74.47274780273438	289.265380859375	1962.438598632813	47.70161056518555	234.5488739013672	2163.731689453125	29.23651123046875	296.3300476074219	2318.406982421875	1010.541564941406	124.6966705322266	2390.867431640625	596.4249267578125	53.80398941040039	2436.9609375	524.75390625	113.8874588012695	2462.599853515625	247.6384887695313	70.17388916015625	2510.383544921875	79.69684600830078	141.7857513427734	nan	nan	nan	2652.89501953125	83.00155639648438	169.9554595947266	
764	7.63	2177.61865234375	1493.892944335938	266.5460510253906	2273.753173828125	1434.450561523438	425.5972900390625	2240.08056640625	1452.371337890625	89.59336090087891	2143.058349609375	1025.6005859375	230.5499572753906	2307.94775390625	995.6103515625	373.2972717285156	2161.473388671875	595.115478515625	413.4142456054688	2161.0341796875	507.0997009277344	358.3779907226563	2032.255126953125	204.2493743896484	357.0945739746094	2020.817749023438	75.44975280761719	289.5971069335938	1962.584594726563	49.4925651550293	235.0165252685547	2164.15380859375	29.46559906005859	296.4635314941406	2328.155029296875	1009.523498535156	125.0200576782227	2398.60791015625	594.8319702148438	55.44196701049805	2444.31494140625	523.3609008789063	115.6264724731445	2473.867431640625	246.6542053222656	72.95735168457031	2525.5283203125	79.98966979980469	145.1661071777344	nan	nan	nan	2668.15478515625	85.63548278808594	173.7105255126953	
765	7.640000000000001	2186.273681640625	1493.105590820313	265.7826232910156	2283.10205078125	1433.578125	425.1328735351563	2249.35302734375	1451.03271484375	88.79925537109375	2151.394775390625	1025.126953125	230.0772857666016	2316.921142578125	994.6188354492188	373.5911865234375	2168.798095703125	594.9310302734375	413.3980712890625	2168.068603515625	506.6919250488281	358.4908752441406	2035.164306640625	205.7710723876953	357.5750122070313	2021.654663085938	76.78683471679688	290.0635375976563	1962.972412109375	51.5958366394043	235.6508941650391	2164.7763671875	29.81964492797852	296.6898193359375	2338.127685546875	1008.682250976563	125.3449172973633	2406.62255859375	593.3843383789063	57.11195755004883	2452.0068359375	522.0698852539063	117.3142166137695	2484.60888671875	245.6370849609375	75.76309967041016	2538.44873046875	79.89664459228516	148.6569976806641	nan	nan	nan	2681.084716796875	87.28197479248047	177.2394866943359	
766	7.65	2193.85107421875	1492.516723632813	264.8857116699219	2292.620361328125	1432.944946289063	424.4825744628906	2258.809326171875	1449.637939453125	88.03423309326172	2161.181396484375	1024.456298828125	229.5207366943359	2325.94482421875	993.7581787109375	373.9020690917969	2176.4677734375	594.8264770507813	413.4765319824219	2175.345458984375	506.3297119140625	358.6214294433594	2038.159423828125	207.5058746337891	358.0614929199219	2022.578247070313	78.37471008300781	290.63427734375	1963.43212890625	53.99052429199219	236.2239379882813	2165.52490234375	30.28508758544922	296.8873901367188	2348.2236328125	1007.971313476563	125.6390380859375	2415.005126953125	592.1526489257813	58.61808395385742	2460.1455078125	520.9896850585938	118.9723739624023	2494.8349609375	244.5484771728516	78.43389892578125	2548.928466796875	79.10040283203125	151.9231872558594	nan	nan	nan	2691.77783203125	87.83454895019531	180.4706268310547	
